<svg width="14" height="14" viewBox="0 0 14 14" fill="none" xmlns="http://www.w3.org/2000/svg">
<g clip-path="url(#clip0)">
<path d="M7 0.291672C3.1325 0.291672 0 3.37167 0 7.17034C0 10.2101 2.0055 12.7878 4.78625 13.6967C5.13625 13.7614 5.26458 13.5485 5.26458 13.3659C5.26458 13.2026 5.25875 12.7698 5.25583 12.1963C3.30867 12.6111 2.898 11.2735 2.898 11.2735C2.5795 10.4796 2.11925 10.2673 2.11925 10.2673C1.48517 9.84084 2.16825 9.84959 2.16825 9.84959C2.87117 9.89742 3.24042 10.5583 3.24042 10.5583C3.86458 11.6101 4.879 11.3062 5.27917 11.1306C5.34217 10.6855 5.52242 10.3828 5.7225 10.2107C4.16792 10.0386 2.534 9.44709 2.534 6.81159C2.534 6.06084 2.80525 5.44717 3.25442 4.96592C3.17567 4.79209 2.93942 4.09267 3.31567 3.14534C3.31567 3.14534 3.90192 2.96101 5.24067 3.85059C5.80067 3.69776 6.39567 3.62192 6.99067 3.61842C7.58567 3.62192 8.18067 3.69776 8.74067 3.85059C10.0707 2.96101 10.6569 3.14534 10.6569 3.14534C11.0332 4.09267 10.7969 4.79209 10.7269 4.96592C11.1732 5.44717 11.4444 6.06084 11.4444 6.81159C11.4444 9.45409 9.80817 10.0357 8.25067 10.2048C8.49567 10.4113 8.72317 10.8331 8.72317 11.4777C8.72317 12.3982 8.71442 13.1378 8.71442 13.3613C8.71442 13.5415 8.83692 13.7568 9.19567 13.6879C11.9962 12.7849 14 10.2054 14 7.17034C14 3.37167 10.8657 0.291672 7 0.291672Z" fill="white"/>
</g>
<defs>
<clipPath id="clip0">
<rect width="14" height="14" fill="white"/>
</clipPath>
</defs>
</svg>
