<svg width="30" height="30" viewBox="0 0 30 30" fill="none" xmlns="http://www.w3.org/2000/svg">
<path d="M27 0H3C1.34315 0 0 1.34315 0 3V27C0 28.6568 1.34315 30 3 30H27C28.6568 30 30 28.6568 30 27V3C30 1.34315 28.6568 0 27 0Z" fill="black"/>
<path d="M8.66298 11.5557H13.1896V11.9135H9.07794V14.6066H12.9444V14.9644H9.07794V17.9211H13.2368V18.279H8.66298V11.5557ZM13.5951 11.5557H14.0761L16.2074 14.5124L18.3858 11.5557L21.3488 7.79999L16.4809 14.8232L18.9893 18.279H18.4895L16.2074 15.1339L13.9157 18.279H13.4254L15.9527 14.8232L13.5951 11.5557ZM19.1685 11.9135V11.5557H24.327V11.9135H21.9505V18.279H21.5356V11.9135H19.1685ZM3 11.5557H3.51868L10.6709 22.2L7.71522 18.279L3.4338 12.0642L3.41494 18.279H3V11.5557ZM24.2852 17.8131C24.2004 17.8131 24.1368 17.7479 24.1368 17.6634C24.1368 17.579 24.2004 17.5137 24.2852 17.5137C24.371 17.5137 24.4335 17.579 24.4335 17.6634C24.4335 17.7479 24.371 17.8131 24.2852 17.8131ZM24.6929 17.4192H24.9149C24.9179 17.5388 25.0058 17.6192 25.135 17.6192C25.2793 17.6192 25.361 17.5328 25.361 17.3709V16.3458H25.5871V17.372C25.5871 17.6634 25.4175 17.8313 25.1369 17.8313C24.8735 17.8313 24.6929 17.6684 24.6929 17.4192ZM25.8828 17.4061H26.1068C26.126 17.5438 26.2612 17.6312 26.456 17.6312C26.6377 17.6312 26.7709 17.5378 26.7709 17.4092C26.7709 17.2986 26.6861 17.2322 26.4934 17.187L26.3057 17.1418C26.0422 17.0805 25.9222 16.9539 25.9222 16.7408C25.9222 16.4825 26.1341 16.3106 26.452 16.3106C26.7477 16.3106 26.9636 16.4825 26.9768 16.7267H26.7568C26.7356 16.593 26.6185 16.5096 26.449 16.5096C26.2703 16.5096 26.1512 16.5951 26.1512 16.7257C26.1512 16.8292 26.2279 16.8885 26.4177 16.9328L26.5781 16.9719C26.8769 17.0413 27 17.1619 27 17.38C27 17.6574 26.784 17.8313 26.4389 17.8313C26.1159 17.8313 25.8989 17.6654 25.8828 17.4061Z" fill="white"/>
</svg>
