<svg width="18" height="18" viewBox="0 0 18 18" fill="none" xmlns="http://www.w3.org/2000/svg">
<path d="M14.7336 2H3.26641C2.567 2 2 2.567 2 3.26641V14.7336C2 15.433 2.567 16 3.26641 16H14.7336C15.433 16 16 15.433 16 14.7336V3.26641C16 2.567 15.433 2 14.7336 2ZM6.33219 14.0885C6.33219 14.2921 6.1672 14.4571 5.96365 14.4571H4.39484C4.19129 14.4571 4.0263 14.2921 4.0263 14.0885V7.51215C4.0263 7.3086 4.19129 7.14361 4.39484 7.14361H5.96365C6.1672 7.14361 6.33219 7.3086 6.33219 7.51215V14.0885ZM5.17925 6.52369C4.35614 6.52369 3.68887 5.85641 3.68887 5.03331C3.68887 4.2102 4.35614 3.54293 5.17925 3.54293C6.00235 3.54293 6.66962 4.2102 6.66962 5.03331C6.66962 5.85641 6.00239 6.52369 5.17925 6.52369ZM14.5307 14.1182C14.5307 14.3053 14.379 14.4571 14.1919 14.4571H12.5084C12.3213 14.4571 12.1696 14.3053 12.1696 14.1182V11.0335C12.1696 10.5734 12.3046 9.01704 10.967 9.01704C9.9295 9.01704 9.71906 10.0823 9.6768 10.5603V14.1182C9.6768 14.3053 9.52511 14.4571 9.33794 14.4571H7.70976C7.52263 14.4571 7.37091 14.3053 7.37091 14.1182V7.48247C7.37091 7.29534 7.52263 7.14361 7.70976 7.14361H9.33794C9.52507 7.14361 9.6768 7.29534 9.6768 7.48247V8.05621C10.0615 7.47887 10.6332 7.03326 11.8505 7.03326C14.5462 7.03326 14.5307 9.55164 14.5307 10.9354V14.1182Z" fill="white"/>
</svg>
