<svg width="30" height="30" viewBox="0 0 30 30" fill="none" xmlns="http://www.w3.org/2000/svg">
<path d="M27 0H3C1.34315 0 0 1.34315 0 3V27C0 28.6568 1.34315 30 3 30H27C28.6568 30 30 28.6568 30 27V3C30 1.34315 28.6568 0 27 0Z" fill="#AB47BC"/>
<path fill-rule="evenodd" clip-rule="evenodd" d="M18.935 18.8091C19.6879 18.7319 20.259 18.0884 20.233 17.3163C20.2071 16.5442 19.5581 15.9265 18.7793 15.9265H18.7274C17.9226 15.9523 17.2996 16.6214 17.3255 17.4193C17.3515 17.8054 17.5073 18.1399 17.7409 18.3716C16.8583 20.0959 15.5083 21.3571 13.4835 22.4123C12.1076 23.1329 10.6798 23.3903 9.252 23.2102C8.0838 23.0557 7.17522 22.541 6.60414 21.6917C5.7734 20.4305 5.69552 19.0664 6.39642 17.7024C6.88968 16.7243 7.66848 16.0037 8.16168 15.6434C8.05788 15.3088 7.90212 14.7426 7.82424 14.3308C4.06005 17.0332 4.44945 20.6879 5.59168 22.4123C6.44838 23.6992 8.18766 24.497 10.1087 24.497C10.6279 24.497 11.1471 24.4455 11.6663 24.3168C14.9891 23.6734 17.5073 21.7174 18.935 18.8091Z" fill="white"/>
<path fill-rule="evenodd" clip-rule="evenodd" d="M23.504 15.6177C21.531 13.3271 18.6235 12.0659 15.3007 12.0659H14.8853C14.6516 11.6027 14.1584 11.2939 13.6133 11.2939H13.5613C12.7566 11.3195 12.1336 11.9887 12.1595 12.7866C12.1855 13.5587 12.8345 14.1764 13.6133 14.1764H13.6652C14.2363 14.1506 14.7295 13.7903 14.9372 13.3013H15.4045C17.3774 13.3013 19.2466 13.8676 20.9339 14.9743C22.2319 15.8236 23.1665 16.9303 23.6857 18.2686C24.127 19.3496 24.101 20.4048 23.6338 21.3056C22.9069 22.6697 21.6868 23.4161 20.0773 23.4161C19.0389 23.4161 18.0524 23.1072 17.5332 22.8756C17.2477 23.1329 16.7285 23.5448 16.365 23.8021C17.4813 24.3169 18.6235 24.6 19.7138 24.6C22.206 24.6 24.0491 23.2359 24.7501 21.8719C25.5029 20.3791 25.451 17.8054 23.504 15.6177Z" fill="white"/>
<path fill-rule="evenodd" clip-rule="evenodd" d="M10.3163 19.2466C10.3423 20.0188 10.9913 20.6365 11.7701 20.6365H11.822C12.6268 20.6107 13.2498 19.9415 13.2239 19.1437C13.1979 18.3716 12.5489 17.7539 11.7701 17.7539H11.7182C11.6663 17.7539 11.5884 17.7539 11.5365 17.7796C10.4721 16.0295 10.0308 14.1249 10.1866 12.0659C10.2904 10.5217 10.8096 9.18335 11.7182 8.07665C12.4711 7.12439 13.9248 6.66113 14.9113 6.63539C17.663 6.58391 18.8312 9.98123 18.9091 11.3453C19.2466 11.4225 19.8177 11.6027 20.2071 11.7314C19.8956 7.56191 17.2996 5.39999 14.8074 5.39999C12.4711 5.39999 10.3163 7.07291 9.45966 9.54371C8.26554 12.8381 9.04434 16.0037 10.4981 18.5003C10.3683 18.6804 10.2904 18.9635 10.3163 19.2466Z" fill="white"/>
<path fill-rule="evenodd" clip-rule="evenodd" d="M18.935 18.8091C19.6879 18.7319 20.259 18.0884 20.233 17.3163C20.2071 16.5442 19.5581 15.9265 18.7793 15.9265H18.7274C17.9226 15.9523 17.2996 16.6214 17.3255 17.4193C17.3515 17.8054 17.5073 18.1399 17.7409 18.3716C16.8583 20.0959 15.5083 21.3571 13.4835 22.4123C12.1076 23.1329 10.6798 23.3903 9.252 23.2102C8.0838 23.0557 7.17522 22.541 6.60414 21.6917C5.7734 20.4305 5.69552 19.0664 6.39642 17.7024C6.88968 16.7243 7.66848 16.0037 8.16168 15.6434C8.05788 15.3088 7.90212 14.7426 7.82424 14.3308C4.06005 17.0332 4.44945 20.6879 5.59168 22.4123C6.44838 23.6992 8.18766 24.497 10.1087 24.497C10.6279 24.497 11.1471 24.4455 11.6663 24.3168C14.9891 23.6734 17.5073 21.7174 18.935 18.8091Z" stroke="white" stroke-width="0.435465" stroke-linejoin="round"/>
<path fill-rule="evenodd" clip-rule="evenodd" d="M23.504 15.6177C21.531 13.3271 18.6235 12.0659 15.3007 12.0659H14.8853C14.6516 11.6027 14.1584 11.2939 13.6133 11.2939H13.5613C12.7566 11.3195 12.1336 11.9887 12.1595 12.7866C12.1855 13.5587 12.8345 14.1764 13.6133 14.1764H13.6652C14.2363 14.1506 14.7295 13.7903 14.9372 13.3013H15.4045C17.3774 13.3013 19.2466 13.8676 20.9339 14.9743C22.2319 15.8236 23.1665 16.9303 23.6857 18.2686C24.127 19.3496 24.101 20.4048 23.6338 21.3056C22.9069 22.6697 21.6868 23.4161 20.0773 23.4161C19.0389 23.4161 18.0524 23.1072 17.5332 22.8756C17.2477 23.1329 16.7285 23.5448 16.365 23.8021C17.4813 24.3169 18.6235 24.6 19.7138 24.6C22.206 24.6 24.0491 23.2359 24.7501 21.8719C25.5029 20.3791 25.451 17.8054 23.504 15.6177Z" stroke="white" stroke-width="0.435465" stroke-linejoin="round"/>
<path fill-rule="evenodd" clip-rule="evenodd" d="M10.3163 19.2466C10.3423 20.0188 10.9913 20.6365 11.7701 20.6365H11.822C12.6268 20.6107 13.2498 19.9415 13.2239 19.1437C13.1979 18.3716 12.5489 17.7539 11.7701 17.7539H11.7182C11.6663 17.7539 11.5884 17.7539 11.5365 17.7796C10.4721 16.0295 10.0308 14.1249 10.1866 12.0659C10.2904 10.5217 10.8096 9.18335 11.7182 8.07665C12.4711 7.12439 13.9248 6.66113 14.9113 6.63539C17.663 6.58391 18.8312 9.98123 18.9091 11.3453C19.2466 11.4225 19.8177 11.6027 20.2071 11.7314C19.8956 7.56191 17.2996 5.39999 14.8074 5.39999C12.4711 5.39999 10.3163 7.07291 9.45966 9.54371C8.26554 12.8381 9.04434 16.0037 10.4981 18.5003C10.3683 18.6804 10.2904 18.9635 10.3163 19.2466Z" stroke="white" stroke-width="0.435465" stroke-linejoin="round"/>
</svg>
