<svg width="30" height="30" viewBox="0 0 30 30" fill="none" xmlns="http://www.w3.org/2000/svg">
<path d="M27 0H3C1.34315 0 0 1.34315 0 3V27C0 28.6568 1.34315 30 3 30H27C28.6568 30 30 28.6568 30 27V3C30 1.34315 28.6568 0 27 0Z" fill="#F4511E"/>
<path d="M18.4387 10.1498L17.1321 12.7759C17.5613 13.1717 17.8643 13.6932 17.9843 14.2838H18.9689C19.0826 13.7246 19.3602 13.222 19.7579 12.8325L18.4387 10.1498Z" fill="white"/>
<path d="M16.0339 12.1414L18.4387 7.30367L20.8373 12.1728C20.932 12.1414 21.0267 12.1162 21.1214 12.0911L23.4 5.39999H13.4711L15.7434 12.0722C15.8381 12.0911 15.9392 12.1162 16.0339 12.1414Z" fill="white"/>
<path d="M15.207 16.4198C16.0843 16.4198 16.7976 15.7099 16.7976 14.8366C16.7976 14.5161 16.7029 14.2209 16.5388 13.9696C16.4883 13.8879 16.4252 13.8125 16.3621 13.7434L16.3558 13.7371C16.2927 13.668 16.2169 13.6052 16.1412 13.5549L16.1349 13.5487C16.1159 13.5361 16.0907 13.5172 16.0654 13.5047C16.0591 13.5047 16.0591 13.4984 16.0528 13.4984C16.0276 13.4858 16.0023 13.4669 15.9771 13.4544H15.9708C15.9455 13.4419 15.9139 13.423 15.8887 13.4104H15.8824C15.8571 13.3979 15.8319 13.3853 15.8066 13.379C15.8003 13.379 15.794 13.3727 15.7877 13.3727C15.7687 13.3664 15.7435 13.3539 15.7246 13.3476C15.7183 13.3476 15.7119 13.3413 15.6993 13.3413C15.6741 13.335 15.6488 13.3225 15.6236 13.3162H15.6172C15.5857 13.3099 15.5605 13.3036 15.5289 13.2973C15.5226 13.2973 15.5163 13.2973 15.5037 13.291C15.4784 13.2848 15.4594 13.2848 15.4342 13.2785C15.4216 13.2785 15.4153 13.2785 15.4027 13.2722C15.3837 13.2722 15.3585 13.2659 15.3396 13.2659H15.308H15.2133H15.1186H15.0934C15.0681 13.2659 15.0492 13.2722 15.024 13.2722H14.9987C14.9734 13.2785 14.9482 13.2785 14.9229 13.2848H14.904C14.8725 13.291 14.8472 13.2973 14.8156 13.3036C14.1213 13.4732 13.6037 14.1015 13.6037 14.8429C13.6164 15.7036 14.3296 16.4198 15.207 16.4198Z" fill="white"/>
<path d="M21.8977 13.2535H21.8851C21.8599 13.2535 21.841 13.2472 21.8157 13.2472H21.7336C21.7021 13.2472 21.6705 13.2472 21.6326 13.2535H21.6011C21.5758 13.2535 21.5506 13.2598 21.5253 13.2598C21.519 13.2598 21.5064 13.2598 21.5001 13.266L21.4054 13.2848H21.3991C21.3675 13.2911 21.3423 13.2974 21.3107 13.3037C21.3044 13.3037 21.2918 13.31 21.2855 13.31C21.2602 13.3163 21.235 13.3226 21.2097 13.3351C21.2034 13.3351 21.1971 13.3414 21.1908 13.3414C21.1592 13.354 21.1277 13.3666 21.1024 13.3791C21.0709 13.3917 21.0456 13.4042 21.014 13.4168C21.0077 13.4168 21.0014 13.4231 20.9951 13.4231C20.9699 13.4356 20.9446 13.4482 20.9194 13.4671C20.9194 13.4671 20.9131 13.4671 20.9131 13.4734C20.8562 13.5047 20.7994 13.5425 20.749 13.5865L20.7427 13.5927C20.6606 13.6555 20.5912 13.7246 20.5217 13.8001C20.4523 13.8754 20.3955 13.9634 20.345 14.0513C20.2124 14.2838 20.1367 14.554 20.1367 14.8367C20.1367 15.71 20.8499 16.42 21.7273 16.42C22.6047 16.42 23.318 15.71 23.318 14.8367C23.318 14.0702 22.7625 13.4231 22.0366 13.2786C21.9988 13.266 21.9482 13.2598 21.8977 13.2535Z" fill="white"/>
<path d="M8.61086 16.4198C9.48824 16.4198 10.2015 15.7098 10.2015 14.8365C10.2015 13.9632 9.48824 13.2533 8.61086 13.2533C7.73348 13.2533 7.02026 13.9632 7.02026 14.8365C7.02026 15.7098 7.73348 16.4198 8.61086 16.4198Z" fill="white"/>
<path d="M21.7399 17.6451C20.427 17.6451 19.3224 16.7466 19.0068 15.5403H17.9463C17.6307 16.7466 16.5261 17.6451 15.2132 17.6451C15.0618 17.6451 14.9166 17.6325 14.7777 17.6136C14.4116 18.1728 13.9761 18.688 13.4648 19.1655C12.5622 20.0136 11.5397 20.642 10.435 21.0377L10.1762 21.132L9.93639 21.0063C8.61081 20.3278 7.92915 18.9519 8.16897 17.6199C8.01747 17.5948 7.87233 17.5571 7.73343 17.5068C7.70823 17.5508 7.68927 17.6011 7.66401 17.6514C7.26003 18.4807 6.83715 19.3351 6.68565 20.2524C6.52155 21.2325 6.45213 23.0231 7.84077 23.9781C8.44671 24.3927 9.08421 24.6 9.79749 24.6C11.1672 24.6 12.6443 23.8713 14.2097 23.0985C15.4342 22.4954 16.6966 21.867 18.0095 21.5466C18.5081 21.4273 19.0131 21.3519 19.4991 21.2828C20.3891 21.1571 21.2349 21.0315 21.923 20.6357C22.6551 20.2147 23.1538 19.511 23.2927 18.7068C23.381 18.2168 23.3306 17.7204 23.1665 17.2618C22.7498 17.5006 22.2638 17.6451 21.7399 17.6451Z" fill="white"/>
</svg>
