<svg width="30" height="30" viewBox="0 0 30 30" fill="none" xmlns="http://www.w3.org/2000/svg">
<path d="M27 0H3C1.34315 0 0 1.31681 0 2.94118V27.0588C0 28.6832 1.34315 30 3 30H27C28.6568 30 30 28.6832 30 27.0588V2.94118C30 1.31681 28.6568 0 27 0Z" fill="#3BC0DD"/>
<path d="M15.5844 22.2882C15.4044 22.1194 15.2166 21.95 15.0372 21.7623C14.8938 21.9029 14.7594 22.0347 14.6172 22.1658C12.8418 23.7894 11.0118 24.4653 9.927 23.8082C8.8776 23.1794 8.547 21.3218 8.967 18.9847C9.01182 18.7314 9.06558 18.478 9.1284 18.2247C8.94 18.1659 8.7606 18.1118 8.5812 18.0482C6.3474 17.2394 4.8768 15.9259 4.8768 14.6118C4.8768 13.3453 6.249 12.1159 8.3922 11.3276C8.6322 11.2429 8.8854 11.1589 9.1458 11.0836C9.0858 10.8394 9.0384 10.6047 8.9934 10.3777C8.5446 8.00531 8.8584 6.10997 9.9168 5.47176C11.0196 4.79588 12.8496 5.51882 14.6874 7.21703C14.7948 7.31999 14.9028 7.43291 15.0192 7.54529C15.1896 7.37645 15.351 7.20767 15.5214 7.05767C17.2614 5.46941 18.9918 4.8053 20.0502 5.44353C21.153 6.10001 21.4764 8.12705 20.9832 10.633C20.9562 10.7929 20.9232 10.9429 20.8848 11.1035C21.1092 11.1694 21.333 11.2441 21.5394 11.3194C23.7276 12.1076 25.1448 13.337 25.1268 14.6318C25.1268 15.9547 23.6112 17.2594 21.2868 18.0665C21.1614 18.1041 21.036 18.1512 20.91 18.1882C20.964 18.3759 20.9994 18.5635 21.0354 18.7512C21.5016 21.1818 21.1428 23.1711 20.058 23.8282C19.7731 23.9964 19.4455 24.082 19.113 24.0753C18.1188 24.0735 16.8564 23.4318 15.5844 22.2882ZM17.3424 18.8441C16.8272 19.6298 16.2611 20.3821 15.6474 21.0965C15.8178 21.2729 15.9882 21.4347 16.1586 21.5847C17.6382 22.917 19.0014 23.4147 19.6386 23.03C19.8332 22.8657 19.9922 22.6648 20.1062 22.4391C20.2202 22.2136 20.2868 21.9678 20.3022 21.7164C20.4317 20.7852 20.3951 19.839 20.1942 18.92C20.1672 18.7512 20.1342 18.5823 20.0868 18.4041C19.1832 18.6114 18.2663 18.7584 17.3424 18.8441ZM9.8268 19.1447C9.4596 21.1447 9.7284 22.6353 10.3668 23.0206C10.593 23.1132 10.8371 23.156 11.0821 23.1458C11.327 23.1357 11.5666 23.0729 11.784 22.9617C12.6296 22.6133 13.3998 22.11 14.0532 21.4788C14.1876 21.3659 14.313 21.2347 14.448 21.1035C13.8208 20.3889 13.2397 19.6367 12.708 18.8511C11.7876 18.7758 10.8736 18.6382 9.9726 18.4394C9.9168 18.6847 9.8718 18.9188 9.8268 19.1447ZM15.0468 20.4582C15.4416 19.9982 15.8358 19.4918 16.2306 18.9288C15.8358 18.9476 15.4236 18.957 15.0108 18.957C14.598 18.957 14.2128 18.9476 13.827 18.9288C14.2302 19.4817 14.634 19.9982 15.0462 20.4582H15.0468ZM13.1628 11.2994C12.822 11.8153 12.4902 12.3583 12.1764 12.9323C11.8626 13.4953 11.5764 14.0677 11.3154 14.6383C11.5848 15.2012 11.8716 15.7735 12.1854 16.3559C12.4992 16.9188 12.831 17.4735 13.1718 17.9976C13.7634 18.0353 14.3826 18.0564 15.0102 18.0564C15.6378 18.0564 16.2654 18.0377 16.8666 17.9912C17.1894 17.4753 17.5212 16.9212 17.8356 16.3489C18.15 15.7765 18.4452 15.1947 18.7056 14.6318C18.4452 14.0782 18.1494 13.5059 17.8356 12.9329C17.5218 12.36 17.19 11.8153 16.8582 11.3C16.2582 11.2529 15.6384 11.2247 15.0108 11.2247C14.3832 11.2247 13.764 11.2523 13.1628 11.2994ZM10.2036 17.577C10.8189 17.7149 11.4417 17.8184 12.069 17.8871C11.8536 17.5306 11.6388 17.1736 11.4324 16.7983C11.235 16.4324 11.0376 16.0665 10.8582 15.7006C10.5984 16.3382 10.383 16.9682 10.2036 17.577ZM18.5886 16.7888C18.3822 17.1641 18.1758 17.5206 17.97 17.8682C18.6067 17.79 19.2385 17.6773 19.8624 17.5306C19.6676 16.8971 19.4401 16.2738 19.1808 15.6629C18.9924 16.0382 18.795 16.4135 18.5886 16.7888ZM8.67 12.1906C6.8406 12.8665 5.7378 13.8506 5.7378 14.6212C5.77268 14.8691 5.85715 15.1078 5.98637 15.3236C6.11556 15.5394 6.28704 15.7281 6.4908 15.8788C7.19076 16.4559 7.99344 16.9012 8.8584 17.1923C9.0198 17.2512 9.1902 17.2959 9.3606 17.3524C9.63606 16.4293 9.96852 15.5236 10.356 14.64C9.96774 13.7716 9.63822 12.8791 9.3696 11.9683C9.12762 12.0318 8.8944 12.1059 8.67 12.1906ZM19.674 14.6212C20.072 15.4935 20.4127 16.3898 20.694 17.3047C20.811 17.267 20.9274 17.2294 21.0348 17.1918C23.0346 16.4977 24.2748 15.437 24.2814 14.6112C24.2814 13.8418 23.1336 12.8465 21.2592 12.1712C21.0708 12.1059 20.865 12.04 20.6592 11.9741C20.3875 12.8758 20.0585 13.7599 19.674 14.6212ZM18.5802 12.463C18.7866 12.8383 18.984 13.2047 19.1628 13.5706C19.412 12.9726 19.6275 12.3617 19.8084 11.7406C19.1993 11.5955 18.5825 11.4828 17.961 11.4029C18.1764 11.7494 18.3822 12.0971 18.5796 12.463H18.5802ZM10.2126 11.7329C10.3926 12.3335 10.6074 12.9436 10.8582 13.5718C11.0382 13.2059 11.235 12.84 11.4324 12.4741C11.6298 12.1082 11.8356 11.7518 12.051 11.4041C11.4054 11.4871 10.7958 11.5994 10.2126 11.7329ZM16.0866 7.74473C15.9342 7.88531 15.7818 8.03531 15.6288 8.18585C16.2515 8.89145 16.8239 9.63833 17.3418 10.4212C18.2545 10.5076 19.1596 10.6582 20.0502 10.8718C20.0862 10.7312 20.1102 10.59 20.1402 10.4494C20.5602 8.29115 20.3016 6.63941 19.62 6.22703C19.4704 6.14471 19.3007 6.10403 19.1292 6.10943C18.3966 6.10589 17.2722 6.66527 16.0866 7.74293V7.74473ZM10.347 6.25061C9.7104 6.63527 9.459 8.17409 9.8358 10.2012C9.8808 10.4171 9.9258 10.6324 9.9792 10.8577C10.871 10.6519 11.7758 10.5045 12.6876 10.4165C13.2073 9.63263 13.7828 8.88569 14.4096 8.18117C14.3112 8.07767 14.2032 7.98413 14.1048 7.88999C12.8568 6.73295 11.6568 6.12233 10.8732 6.12233C10.6891 6.11621 10.5068 6.16061 10.347 6.25061ZM16.212 10.3418C15.8422 9.81713 15.4432 9.31283 15.0168 8.83115C14.6136 9.29057 14.2098 9.79763 13.8168 10.3418C14.2116 10.3229 14.6058 10.3135 15.0096 10.3135C15.4134 10.3135 15.8178 10.3212 16.2126 10.3418H16.212ZM13.2168 14.6588C13.2084 14.4176 13.2486 14.1772 13.3352 13.9513C13.4217 13.7254 13.5529 13.5184 13.7212 13.3423C13.8894 13.1662 14.0915 13.0244 14.3158 12.925C14.5401 12.8255 14.7822 12.7705 15.0282 12.763C15.5246 12.7795 15.9941 12.9884 16.3336 13.3438C16.6732 13.6992 16.8551 14.1721 16.8396 14.6588C16.8556 15.1459 16.6738 15.6194 16.334 15.9752C15.9943 16.331 15.5245 16.5401 15.0276 16.5565C14.7814 16.549 14.5392 16.4939 14.3149 16.3943C14.0905 16.2948 13.8883 16.1528 13.7201 15.9764C13.5518 15.8001 13.4208 15.593 13.3344 15.3668C13.2481 15.1407 13.208 14.9001 13.2168 14.6588Z" fill="#E6E6E6"/>
</svg>
