<svg width="30" height="30" viewBox="0 0 30 30" fill="none" xmlns="http://www.w3.org/2000/svg">
<path d="M27 0H3C1.34315 0 0 1.34315 0 3V27C0 28.6568 1.34315 30 3 30H27C28.6568 30 30 28.6568 30 27V3C30 1.34315 28.6568 0 27 0Z" fill="#FDE635"/>
<path d="M4.4202 3.9696H25.698V25.0896H4.4202V3.9696Z" fill="#FDE635"/>
<path d="M8.3784 22.062L10.2882 20.9064C10.6566 21.5598 10.992 22.1124 11.796 22.1124C12.5664 22.1124 13.0524 21.8124 13.0524 20.6382V12.6642H15.3978V20.6712C15.3978 23.1 13.974 24.2058 11.8968 24.2058C11.1625 24.2455 10.4333 24.0619 9.80532 23.6791C9.17742 23.2964 8.68014 22.7323 8.379 22.0614L8.3784 22.062ZM16.6722 21.81L18.582 20.7042C18.7943 21.135 19.1239 21.4971 19.5329 21.749C19.9418 22.0008 20.4136 22.1322 20.8938 22.128C21.8658 22.128 22.485 21.642 22.485 20.9718C22.485 20.1678 21.8484 19.8828 20.7762 19.4118L20.1918 19.1634C18.4998 18.4434 17.3772 17.5386 17.3772 15.6288C17.3772 13.8696 18.7176 12.5298 20.8116 12.5298C21.4901 12.4806 22.1681 12.6323 22.7609 12.966C23.3537 13.2997 23.8352 13.8005 24.1452 14.406L22.3188 15.579C22.1989 15.2784 21.9905 15.0214 21.7213 14.8419C21.452 14.6624 21.1346 14.569 20.811 14.574C20.6699 14.5597 20.5274 14.575 20.3926 14.6189C20.2578 14.6628 20.1337 14.7343 20.028 14.8289C19.9224 14.9234 19.8376 15.039 19.7791 15.1681C19.7207 15.2973 19.6898 15.4372 19.6884 15.579C19.6884 16.2828 20.124 16.5672 21.1284 17.0028L21.7146 17.2542C23.7084 18.1086 24.8304 18.9798 24.8304 20.9394C24.8304 23.0502 23.172 24.2064 20.9442 24.2064C18.7662 24.2064 17.3592 23.1678 16.6722 21.8106" fill="black"/>
</svg>
