<svg width="30" height="30" viewBox="0 0 30 30" fill="none" xmlns="http://www.w3.org/2000/svg">
<path d="M27 0H3C1.34315 0 0 1.34315 0 3V27C0 28.6568 1.34315 30 3 30H27C28.6568 30 30 28.6568 30 27V3C30 1.34315 28.6568 0 27 0Z" fill="white"/>
<path fill-rule="evenodd" clip-rule="evenodd" d="M3 0C1.34315 0 0 1.34315 0 3V27C0 28.6568 1.34315 30 3 30H27C28.6568 30 30 28.6568 30 27V3C30 1.34315 28.6568 0 27 0H3ZM20.6601 12.8228C20.9133 12.8236 21.2009 12.8369 21.4174 12.8604C22.2986 12.9557 22.9849 13.336 23.5687 14.0521C23.8595 14.4088 23.959 14.5649 23.9377 14.6316C23.9241 14.6747 23.7246 14.8176 23.0903 15.2386C22.4673 15.6522 22.2666 15.7761 22.22 15.7761C22.1727 15.7761 22.0743 15.6748 21.9323 15.4802C21.659 15.1057 21.3799 14.9347 20.9485 14.8777C20.4845 14.8162 20.0684 14.9625 19.8646 15.2587C19.6903 15.5118 19.664 15.9191 19.8025 16.215C19.9629 16.5578 20.2533 16.7473 21.3662 17.2353C22.6497 17.798 23.3001 18.1833 23.7738 18.6613C24.2839 19.1762 24.5424 19.7706 24.6218 20.6114C24.6605 21.0212 24.6132 21.5069 24.4959 21.9018C24.2083 22.8698 23.4322 23.5787 22.2946 23.9123C21.9802 24.0046 21.6875 24.0596 21.3981 24.0808C20.9563 24.1133 20.3238 24.0954 19.9432 24.04C18.98 23.8997 17.8929 23.3393 17.3507 22.7038C17.0846 22.3919 16.7449 21.8786 16.7449 21.7882C16.7449 21.7447 16.7665 21.7199 16.8521 21.6655C17.1058 21.5043 18.5599 20.6731 18.5881 20.6731C18.6052 20.6731 18.6811 20.7626 18.7568 20.872C18.9284 21.1196 19.3502 21.5453 19.5646 21.6874C19.7398 21.8034 19.9638 21.8966 20.2297 21.9638C20.3821 22.0018 20.4627 22.0085 20.795 22.0085C21.1346 22.0084 21.2042 22.0027 21.3562 21.9619C21.758 21.8537 22.0716 21.63 22.2045 21.3566C22.2628 21.2386 22.2639 21.2238 22.2639 20.9374V20.6404L22.1925 20.4987C22.0195 20.1553 21.6468 19.9197 20.4684 19.4093C19.9271 19.1748 19.2642 18.8442 19.0054 18.6797C18.4147 18.3044 18.0053 17.8753 17.7367 17.35C17.4694 16.8276 17.4296 16.6331 17.4289 15.8477C17.4283 15.2328 17.4272 15.2404 17.5546 14.8479C17.6701 14.4918 17.9065 14.0939 18.1675 13.8166C18.6884 13.2628 19.4495 12.907 20.2643 12.8362C20.3686 12.8263 20.5082 12.8223 20.6601 12.8228ZM13.6486 12.9442C15.2179 12.945 16.1177 12.9505 16.1322 12.9595C16.1594 12.9764 16.1628 13.1129 16.1628 13.9846V14.9902L13.0309 15.0016V19.4477C13.0309 21.8931 13.0259 23.9084 13.0191 23.9262C13.0081 23.9561 12.8876 23.9584 11.8687 23.9584H10.7307L10.7189 23.9124C10.7113 23.8871 10.7058 21.8719 10.7056 19.4339L10.7053 15.0013L7.57338 14.99V13.9964C7.57338 13.2082 7.57884 12.9972 7.59978 12.9762C7.62132 12.954 8.42052 12.9482 11.864 12.9449C12.528 12.9442 13.1254 12.9439 13.6486 12.9442Z" fill="#0288D1"/>
</svg>
