<svg width="30" height="30" viewBox="0 0 30 30" fill="none" xmlns="http://www.w3.org/2000/svg">
<path d="M27 0H3C1.34315 0 0 1.34315 0 3V27C0 28.6568 1.34315 30 3 30H27C28.6568 30 30 28.6568 30 27V3C30 1.34315 28.6568 0 27 0Z" fill="#8CC84B"/>
<path d="M14.3622 5.23501C14.6006 5.10174 14.8691 5.03177 15.1422 5.03177C15.4153 5.03177 15.6838 5.10174 15.9222 5.23501C18.2974 6.57703 20.6728 7.91881 23.0484 9.26041C23.2718 9.38761 23.4578 9.57133 23.5879 9.79309C23.7179 10.0149 23.7874 10.2669 23.7894 10.524V18.6012C23.7848 18.8677 23.7083 19.1281 23.5682 19.3549C23.4281 19.5817 23.2295 19.7666 22.9932 19.89C20.6256 21.2248 18.2586 22.5602 15.8922 23.8962C15.6493 24.0306 15.3749 24.0973 15.0975 24.0896C14.8201 24.0819 14.5498 24 14.3148 23.8524C13.6052 23.4408 12.895 23.0302 12.1842 22.6206C12.0282 22.5499 11.8883 22.448 11.7732 22.3212C11.8638 22.2012 12.0258 22.1838 12.1572 22.1304C12.4488 22.0261 12.73 21.8947 12.9972 21.738C13.0309 21.7182 13.0697 21.7088 13.1087 21.7111C13.1477 21.7135 13.1852 21.7275 13.2162 21.7512C13.8234 22.0992 14.4246 22.4574 15.0336 22.8018C15.1638 22.8768 15.2952 22.7772 15.4062 22.7154C17.7294 21.4022 20.0534 20.0906 22.3782 18.7806C22.4197 18.7599 22.4539 18.7272 22.4765 18.6868C22.4991 18.6463 22.5089 18.6 22.5048 18.5538C22.5048 15.8902 22.5048 13.2262 22.5048 10.5618C22.509 10.51 22.4969 10.4581 22.4703 10.4135C22.4436 10.3689 22.4036 10.3336 22.356 10.3128C19.996 8.98399 17.6372 7.65463 15.2796 6.32461C15.2387 6.29659 15.1903 6.28165 15.1407 6.28165C15.0911 6.28165 15.0427 6.29659 15.0018 6.32461C12.6418 7.65421 10.2832 8.98423 7.926 10.3146C7.87818 10.3349 7.83798 10.3698 7.81116 10.4143C7.78428 10.4588 7.77222 10.5106 7.7766 10.5624C7.7766 13.226 7.7766 15.89 7.7766 18.5544C7.77252 18.6004 7.7826 18.6466 7.80558 18.6868C7.82856 18.7269 7.86324 18.759 7.905 18.7788C8.53458 19.1356 9.1644 19.4914 9.7944 19.8462C9.96912 19.9542 10.1647 20.0241 10.3682 20.0514C10.5718 20.0787 10.7788 20.0628 10.9758 20.0046C11.1465 19.9402 11.2935 19.8254 11.3972 19.6753C11.5009 19.5252 11.5562 19.347 11.556 19.1646C11.559 16.5162 11.556 13.8678 11.556 11.22C11.5553 11.1919 11.5606 11.164 11.5714 11.1381C11.5822 11.1121 11.5985 11.0888 11.619 11.0696C11.6395 11.0504 11.6638 11.0357 11.6904 11.0266C11.717 11.0175 11.7452 11.014 11.7732 11.0166C12.0732 11.0166 12.3786 11.0124 12.681 11.0166C12.7103 11.018 12.7389 11.0254 12.7651 11.0386C12.7913 11.0517 12.8144 11.0701 12.833 11.0928C12.8516 11.1154 12.8653 11.1417 12.8731 11.1699C12.8809 11.1981 12.8827 11.2276 12.8784 11.2566C12.8784 13.9218 12.8814 16.587 12.8784 19.2516C12.8985 19.6137 12.8212 19.9744 12.6544 20.2964C12.4877 20.6184 12.2377 20.8897 11.9304 21.0822C11.5198 21.2736 11.0702 21.3668 10.6173 21.3544C10.1644 21.342 9.7206 21.2244 9.321 21.0108C8.6286 20.6652 7.968 20.2578 7.2882 19.8876C7.05222 19.7645 6.85386 19.5801 6.71394 19.3537C6.57402 19.1272 6.49775 18.8673 6.49319 18.6012V10.524C6.49523 10.2615 6.56753 10.0044 6.70259 9.77935C6.83765 9.55429 7.03056 9.36949 7.2612 9.24421C9.62922 7.90861 11.9962 6.57223 14.3622 5.23501Z" fill="#E6E6E6"/>
<path d="M16.4268 10.8288C17.4728 10.6934 18.5357 10.856 19.4934 11.298C19.8404 11.505 20.1274 11.7991 20.3257 12.1511C20.5241 12.5032 20.6271 12.9009 20.6244 13.305C20.6109 13.3555 20.5796 13.3995 20.5363 13.4288C20.493 13.4581 20.4405 13.4708 20.3886 13.4646C20.0886 13.4646 19.7886 13.4688 19.4886 13.4646C19.431 13.4609 19.3769 13.4358 19.3368 13.3943C19.2968 13.3528 19.2737 13.2979 19.272 13.2402C19.238 13.0445 19.1619 12.8585 19.0489 12.6953C18.9359 12.532 18.7886 12.3952 18.6174 12.2946C18.0477 12.0683 17.4325 11.9804 16.8222 12.0378C16.3725 12.0237 15.9276 12.1344 15.537 12.3576C15.4025 12.4619 15.304 12.6058 15.2555 12.7689C15.2069 12.932 15.2108 13.1063 15.2664 13.2672C15.3624 13.4958 15.6264 13.5672 15.8424 13.6374C17.0868 13.9626 18.405 13.9302 19.6254 14.3574C19.8875 14.4301 20.1294 14.5619 20.3326 14.7427C20.5358 14.9234 20.6949 15.1484 20.7978 15.4002C20.9202 15.7575 20.9498 16.14 20.8837 16.5118C20.8177 16.8837 20.6583 17.2327 20.4204 17.526C19.9901 17.9726 19.4311 18.2738 18.8214 18.3876C18.0272 18.5489 17.2126 18.5835 16.4076 18.4902C15.635 18.4462 14.8943 18.1676 14.2842 17.6916C14.0421 17.4698 13.8521 17.1973 13.7276 16.8934C13.6031 16.5896 13.5473 16.262 13.5642 15.9342C13.5696 15.8812 13.5959 15.8325 13.6371 15.7987C13.6784 15.765 13.7313 15.749 13.7844 15.7542C14.0844 15.7542 14.3874 15.7512 14.6892 15.7542C14.7171 15.7535 14.7449 15.7585 14.7709 15.7687C14.7969 15.7788 14.8207 15.794 14.8408 15.8135C14.8609 15.8329 14.8769 15.8561 14.888 15.8818C14.899 15.9074 14.9049 15.935 14.9052 15.963C14.9202 16.1493 14.9733 16.3306 15.0609 16.4957C15.1487 16.6608 15.2692 16.8062 15.4152 16.923C16.0611 17.2408 16.783 17.3722 17.4996 17.3022C18.0993 17.3473 18.6978 17.2001 19.2084 16.8822C19.3257 16.7675 19.4112 16.6241 19.4562 16.4663C19.5012 16.3084 19.5043 16.1416 19.4652 15.9822C19.392 15.7158 19.113 15.5916 18.8736 15.5106C17.6454 15.1218 16.3122 15.2628 15.0936 14.8236C14.8384 14.749 14.6025 14.6198 14.4021 14.4452C14.2016 14.2706 14.0414 14.0545 13.9326 13.812C13.7928 13.45 13.7575 13.0559 13.8307 12.6748C13.9039 12.2936 14.0826 11.9407 14.3466 11.6562C14.9216 11.1486 15.6538 10.8543 16.4202 10.8228L16.4268 10.8288Z" fill="#E6E6E6"/>
</svg>
