<svg width="39" height="39" viewBox="0 0 39 39" fill="none" xmlns="http://www.w3.org/2000/svg">
<path d="M35.1 0H3.9C1.74609 0 0 1.74609 0 3.9V35.1C0 37.2539 1.74609 39 3.9 39H35.1C37.2539 39 39 37.2539 39 35.1V3.9C39 1.74609 37.2539 0 35.1 0Z" fill="black"/>
<path d="M11.2619 15.0224H17.1465V15.4876H11.8013V18.9886H16.8277V19.4537H11.8013V23.2975H17.2078V23.7627H11.2619V15.0224ZM17.6736 15.0224H18.2989L21.0696 18.8662L23.9015 15.0224L27.7535 10.14L21.4251 19.2701L24.6861 23.7627H24.0364L21.0696 19.6741L18.0905 23.7627H17.453L20.7386 19.2701L17.6736 15.0224ZM24.919 15.4876V15.0224H31.6251V15.4876H28.5357V23.7627H27.9962V15.4876H24.919ZM3.89999 15.0224H4.57427L13.8721 28.86L10.0298 23.7627L4.46393 15.6835L4.43942 23.7627H3.89999V15.0224ZM31.5707 23.1571C31.4605 23.1571 31.3778 23.0722 31.3778 22.9624C31.3778 22.8527 31.4605 22.7678 31.5707 22.7678C31.6823 22.7678 31.7635 22.8527 31.7635 22.9624C31.7635 23.0722 31.6823 23.1571 31.5707 23.1571ZM32.1007 22.645H32.3894C32.3933 22.8004 32.5075 22.9049 32.6754 22.9049C32.863 22.9049 32.9693 22.7926 32.9693 22.5822V21.2495H33.2632V22.5836C33.2632 22.9624 33.0427 23.1807 32.678 23.1807C32.3356 23.1807 32.1007 22.969 32.1007 22.645ZM33.6476 22.628H33.9389C33.9638 22.807 34.1396 22.9206 34.3928 22.9206C34.629 22.9206 34.8022 22.7992 34.8022 22.6319C34.8022 22.4882 34.692 22.4019 34.4414 22.3432L34.1974 22.2844C33.8549 22.2046 33.6988 22.0401 33.6988 21.763C33.6988 21.4273 33.9743 21.2038 34.3875 21.2038C34.772 21.2038 35.0527 21.4273 35.0698 21.7448H34.7838C34.7562 21.571 34.6041 21.4626 34.3836 21.4626C34.1514 21.4626 33.9966 21.5736 33.9966 21.7434C33.9966 21.878 34.0963 21.9551 34.343 22.0126L34.5516 22.0635C34.9399 22.1537 35.1 22.3105 35.1 22.594C35.1 22.9546 34.8192 23.1807 34.3705 23.1807C33.9507 23.1807 33.6686 22.9651 33.6476 22.628Z" fill="white"/>
</svg>
