<svg width="39" height="39" viewBox="0 0 39 39" fill="none" xmlns="http://www.w3.org/2000/svg">
<path d="M35.1 0H3.9C1.74609 0 0 1.74609 0 3.9V35.1C0 37.2539 1.74609 39 3.9 39H35.1C37.2539 39 39 37.2539 39 35.1V3.9C39 1.74609 37.2539 0 35.1 0Z" fill="white"/>
<path fill-rule="evenodd" clip-rule="evenodd" d="M3.9 0C1.74609 0 0 1.74609 0 3.9V35.1C0 37.2539 1.74609 39 3.9 39H35.1C37.2539 39 39 37.2539 39 35.1V3.9C39 1.74609 37.2539 0 35.1 0H3.9ZM26.8581 16.6696C27.1873 16.6706 27.5612 16.688 27.8426 16.7185C28.9882 16.8425 29.8803 17.3367 30.6393 18.2677C31.0173 18.7314 31.1466 18.9343 31.119 19.0211C31.1013 19.0771 30.842 19.2629 30.0174 19.8102C29.2075 20.3479 28.9466 20.5089 28.886 20.5089C28.8245 20.5089 28.6966 20.3773 28.512 20.1243C28.1567 19.6374 27.7939 19.4151 27.2331 19.341C26.6299 19.2611 26.0889 19.4512 25.8239 19.8363C25.5974 20.1653 25.5633 20.6948 25.7433 21.0795C25.9518 21.5251 26.3293 21.7714 27.776 22.4059C29.4446 23.1375 30.2901 23.6383 30.9059 24.2597C31.5691 24.929 31.9051 25.7018 32.0083 26.7948C32.0587 27.3275 31.9972 27.9589 31.8447 28.4723C31.4708 29.7308 30.4619 30.6524 28.983 31.086C28.5742 31.2059 28.1938 31.2775 27.8175 31.3051C27.2432 31.3473 26.4209 31.324 25.9261 31.2519C24.6741 31.0697 23.2608 30.3411 22.556 29.515C22.21 29.1094 21.7684 28.4422 21.7684 28.3247C21.7684 28.2681 21.7965 28.2359 21.9077 28.1652C22.2376 27.9556 24.1279 26.875 24.1646 26.875C24.1867 26.875 24.2855 26.9914 24.3839 27.1335C24.6069 27.4555 25.1552 28.0089 25.434 28.1936C25.6618 28.3444 25.9529 28.4656 26.2986 28.5529C26.4967 28.6023 26.6015 28.6111 27.0336 28.6111C27.475 28.6109 27.5655 28.6035 27.763 28.5504C28.2854 28.4099 28.6931 28.119 28.8658 27.7636C28.9416 27.6101 28.9431 27.5909 28.9431 27.2186V26.8325L28.8502 26.6483C28.6254 26.2019 28.1408 25.8956 26.6089 25.2321C25.9053 24.9272 25.0435 24.4975 24.707 24.2837C23.9391 23.7957 23.4069 23.2378 23.0577 22.5549C22.7102 21.8759 22.6585 21.6231 22.6576 20.602C22.6567 19.8026 22.6554 19.8125 22.8209 19.3023C22.9711 18.8393 23.2785 18.3221 23.6178 17.9615C24.295 17.2417 25.2844 16.779 26.3436 16.687C26.4791 16.6741 26.6607 16.669 26.8581 16.6696ZM17.7431 16.8275C19.7833 16.8285 20.9531 16.8356 20.9719 16.8474C21.0072 16.8693 21.0116 17.0468 21.0116 18.1799V19.4872L16.9401 19.502V25.282C16.9401 28.461 16.9337 31.0809 16.9248 31.1041C16.9105 31.1429 16.7539 31.1459 15.4293 31.1459H13.9499L13.9346 31.0861C13.9247 31.0533 13.9175 28.4334 13.9173 25.264L13.9168 19.5017L9.84539 19.4871V18.1953C9.84539 17.1707 9.85249 16.8964 9.87971 16.8691C9.90772 16.8402 10.9467 16.8327 15.4233 16.8283C16.2864 16.8275 17.063 16.8271 17.7431 16.8275Z" fill="#0288D1"/>
</svg>
